<svg width="16" height="16" viewBox="0 0 16 16" xmlns="http://www.w3.org/2000/svg" fill="none"><path d="M13.469 9.538c-.349-.362-.77-.556-1.217-.556-.443 0-.868.19-1.231.552l-1.138 1.129-.277-.143-.356-.19c-1.066-.674-2.034-1.552-2.963-2.688-.45-.566-.752-1.043-.972-1.527.295-.269.569-.548.835-.817l.302-.305c.756-.753.756-1.728 0-2.48l-.983-.978-.335-.34c-.216-.222-.443-.452-.677-.667-.349-.344-.767-.527-1.206-.527-.439 0-.864.183-1.224.527l-.007.007-1.224 1.229c-.461.459-.724 1.018-.781 1.667-.086 1.047.223 2.021.461 2.66.583 1.566 1.455 3.018 2.754 4.573 1.577 1.874 3.474 3.355 5.642 4.398.828.391 1.933.853 3.168.932l.227.007c.832 0 1.53-.297 2.077-.889l.014-.018c.187-.226.403-.43.63-.649l.468-.462c.356-.369.544-.799.544-1.24 0-.444-.191-.871-.554-1.229l-1.977-1.975zm1.289 3.774l-.439.437c-.234.222-.472.455-.695.717-.364.387-.792.57-1.354.57l-.166-.004c-1.069-.068-2.063-.484-2.808-.839-2.038-.982-3.827-2.376-5.314-4.143-1.228-1.473-2.049-2.835-2.592-4.298-.335-.892-.457-1.588-.403-2.244.036-.419.198-.767.497-1.065l1.228-1.222c.176-.165.364-.254.547-.254.227 0 .41.136.526.251l.011.011c.22.204.428.416.648.642l.342.348.983.978c.382.38.382.731 0 1.111l-.31.308c-.302.308-.59.595-.904.875l-.018.018c-.31.308-.252.609-.187.814l.011.032c.256.616.616 1.197 1.163 1.889l.004.004c.994 1.219 2.041 2.168 3.197 2.896.148.093.299.168.443.24l.356.19.043.025c.122.061.238.09.356.09.299 0 .486-.186.547-.247l1.231-1.226c.122-.122.317-.269.544-.269.223 0 .407.14.519.262l.007.007 1.984 1.975c.371.366.371.742.004 1.122z" fill="#268D8A"/></svg>