<svg width="12" height="16" viewBox="0 0 12 16" fill="none" xmlns="http://www.w3.org/2000/svg">
<path d="M6 0C2.89838 0 0.375 2.52338 0.375 5.625C0.375 6.67294 0.665281 7.69563 1.21466 8.58288L5.67981 15.7784C5.76534 15.9163 5.91603 16 6.07809 16C6.07934 16 6.08056 16 6.08181 16C6.24528 15.9987 6.39628 15.9124 6.48025 15.7721L10.8316 8.50688C11.3507 7.63838 11.625 6.64184 11.625 5.625C11.625 2.52338 9.10163 0 6 0ZM10.0271 8.02556L6.071 14.6308L2.01147 8.08894C1.55419 7.35044 1.30625 6.49844 1.30625 5.625C1.30625 3.04031 3.41531 0.93125 6 0.93125C8.58469 0.93125 10.6906 3.04031 10.6906 5.625C10.6906 6.47253 10.459 7.30275 10.0271 8.02556Z" fill="#268D8A"/>
<path d="M6 2.8125C4.44919 2.8125 3.1875 4.07419 3.1875 5.625C3.1875 7.16591 4.42866 8.4375 6 8.4375C7.59072 8.4375 8.8125 7.14897 8.8125 5.625C8.8125 4.07419 7.55081 2.8125 6 2.8125ZM6 7.50625C4.96072 7.50625 4.11875 6.66147 4.11875 5.625C4.11875 4.59113 4.96613 3.74375 6 3.74375C7.03387 3.74375 7.87813 4.59113 7.87813 5.625C7.87813 6.64634 7.05575 7.50625 6 7.50625Z" fill="#268D8A"/>
</svg>
